<?xml version="1.0" encoding="UTF-8"?>
<svg width="120" height="40" viewBox="0 0 120 40" fill="none" xmlns="http://www.w3.org/2000/svg">
  <!-- Icon -->
  <g transform="translate(0, 8)">
    <path d="M12 0C18.6274 0 24 5.37258 24 12C24 18.6274 18.6274 24 12 24C5.37258 24 0 18.6274 0 12C0 5.37258 5.37258 0 12 0Z" fill="url(#paint0_linear)"/>
    <path d="M12 6C14.7614 6 17 8.23858 17 11C17 13.7614 14.7614 16 12 16C9.23858 16 7 13.7614 7 11C7 8.23858 9.23858 6 12 6Z" fill="white"/>
  </g>
  
  <!-- Text -->
  <text x="32" y="26" font-family="Inter, sans-serif" font-size="24" font-weight="600" fill="#111827">optik</text>
  
  <!-- Gradient Definition -->
  <defs>
    <linearGradient id="paint0_linear" x1="0" y1="0" x2="24" y2="24" gradientUnits="userSpaceOnUse">
      <stop offset="0%" stop-color="#007BFF"/>
      <stop offset="100%" stop-color="#0056b3"/>
    </linearGradient>
  </defs>
</svg>
